<svg xmlns="http://www.w3.org/2000/svg" xmlns:xlink="http://www.w3.org/1999/xlink" viewBox="0 0 637.35 300.03"><defs><style>.cls-1,.cls-18{fill:#333;}.cls-2{fill:url(#xonix-2);}.cls-3{fill:url(#xonix-2-2);}.cls-4{fill:url(#xonix-2-3);}.cls-5{fill:url(#xonix-2-4);}.cls-6{fill:url(#xonix-2-5);}.cls-7{fill:url(#xonix-2-6);}.cls-8{fill:url(#xonix-2-7);}.cls-9{fill:url(#xonix-2-8);}.cls-10{fill:url(#xonix-2-9);}.cls-11{fill:url(#xonix-2-10);}.cls-12{fill:url(#xonix-2-11);}.cls-13{fill:url(#xonix-2-12);}.cls-14{fill:url(#xonix-2-13);}.cls-15{fill:url(#xonix-2-14);}.cls-16{fill:url(#xonix-2-15);}.cls-17{fill:url(#xonix-2-16);}.cls-18{font-size:52.74px;font-family:MyriadPro-Bold, Myriad Pro;font-weight:700;}.cls-19{letter-spacing:0em;}.cls-20{letter-spacing:-0.03em;}.cls-21{letter-spacing:-0.04em;}.cls-22{letter-spacing:-0.05em;}.cls-23{letter-spacing:0.01em;}.cls-24{letter-spacing:0em;}.cls-25{fill:#fff;}.cls-26{fill:none;}</style><linearGradient id="xonix-2" x1="176.74" y1="131.67" x2="272.8" y2="131.67" gradientUnits="userSpaceOnUse"><stop offset="0" stop-color="#ed1e79"/><stop offset="1" stop-color="#ff616d"/></linearGradient><linearGradient id="xonix-2-2" x1="318.68" y1="131.67" x2="422.21" y2="131.67" xlink:href="#xonix-2"/><linearGradient id="xonix-2-3" x1="453.1" y1="131.67" x2="471.1" y2="131.67" xlink:href="#xonix-2"/><linearGradient id="xonix-2-4" x1="453.1" y1="49.73" x2="471.1" y2="49.73" xlink:href="#xonix-2"/><linearGradient id="xonix-2-5" x1="474.27" y1="520.68" x2="490.21" y2="520.68" gradientTransform="matrix(0.93, -0.64, 0.62, 0.9, -207.84, 0.37)" xlink:href="#xonix-2"/><linearGradient id="xonix-2-6" x1="474.27" y1="452.2" x2="490.21" y2="452.2" gradientTransform="matrix(0.93, -0.64, 0.62, 0.9, -207.84, 0.37)" xlink:href="#xonix-2"/><linearGradient id="xonix-2-7" x1="421.2" y1="67.08" x2="437.15" y2="67.08" gradientTransform="matrix(0.91, 0.67, -0.67, 0.91, 174.41, -187.39)" xlink:href="#xonix-2"/><linearGradient id="xonix-2-8" x1="421.2" y1="-1.24" x2="437.15" y2="-1.24" gradientTransform="matrix(0.91, 0.67, -0.67, 0.91, 174.41, -187.39)" xlink:href="#xonix-2"/><linearGradient id="xonix-2-9" x1="474.27" y1="484.93" x2="490.21" y2="484.93" gradientTransform="matrix(0.93, -0.64, 0.62, 0.9, -207.84, 0.37)" xlink:href="#xonix-2"/><linearGradient id="xonix-2-10" x1="421.2" y1="31.73" x2="437.15" y2="31.73" gradientTransform="matrix(0.91, 0.67, -0.67, 0.91, 174.41, -187.39)" xlink:href="#xonix-2"/><linearGradient id="xonix-2-11" x1="141.91" y1="286.31" x2="159.96" y2="286.31" gradientTransform="matrix(0.93, -0.64, 0.62, 0.9, -207.84, 0.37)" xlink:href="#xonix-2"/><linearGradient id="xonix-2-12" x1="140.21" y1="215.19" x2="158.12" y2="215.19" gradientTransform="matrix(0.93, -0.64, 0.62, 0.9, -207.84, 0.37)" xlink:href="#xonix-2"/><linearGradient id="xonix-2-13" x1="94.5" y1="308.04" x2="112.58" y2="308.04" gradientTransform="matrix(0.91, 0.67, -0.67, 0.91, 174.41, -187.39)" xlink:href="#xonix-2"/><linearGradient id="xonix-2-14" x1="96.41" y1="236.98" x2="114.37" y2="236.98" gradientTransform="matrix(0.91, 0.67, -0.67, 0.91, 174.41, -187.39)" xlink:href="#xonix-2"/><linearGradient id="xonix-2-15" x1="141.49" y1="249.2" x2="158.53" y2="249.2" gradientTransform="matrix(0.93, -0.64, 0.62, 0.9, -207.84, 0.37)" xlink:href="#xonix-2"/><linearGradient id="xonix-2-16" x1="95.99" y1="271.28" x2="113" y2="271.28" gradientTransform="matrix(0.91, 0.67, -0.67, 0.91, 174.41, -187.39)" xlink:href="#xonix-2"/></defs><title>nachoXo-nac</title><g id="Layer_2" data-name="Layer 2"><g id="Layer_1-2" data-name="Layer 1"><rect class="cls-1" x="162.74" y="69.03" width="125.27" height="125.27"/><rect class="cls-2" x="176.74" y="83.64" width="96.06" height="96.06"/><path class="cls-3" d="M318.68,194.3V69h19.64l44,63.38c10,14.68,18.21,27.88,24.55,40.7l.61-.19c-1.64-16.73-2-32-2-51.48V69h16.78V194.3h-18l-43.79-63.56c-9.62-13.94-18.82-28.25-25.58-41.82l-.61.19c1,15.8,1.23,30.85,1.23,51.67V194.3Z"/><path class="cls-4" d="M471.1,69V194.3h-18V69Z"/><path class="cls-5" d="M471.1,41.29V58.17h-18V41.29Z"/><polygon class="cls-6" points="554 129.69 542.69 145 576.48 193.98 591.3 183.75 554 129.69"/><polygon class="cls-7" points="513.17 70.5 498.35 80.72 531.88 129.33 543.19 114.02 513.17 70.5"/><polygon class="cls-8" points="492.02 183.28 506.5 193.98 542.69 145 531.88 129.33 492.02 183.28"/><polygon class="cls-9" points="590.68 80.06 576.2 69.36 543.19 114.02 554 129.69 590.68 80.06"/><polygon class="cls-10" points="543.19 114.02 531.88 129.33 542.69 145 554 129.69 543.19 114.02"/><polygon class="cls-11" points="543.19 114.02 531.88 129.33 542.69 145 554 129.69 543.19 114.02"/><polygon class="cls-12" points="98.87 129.64 86.78 145.19 122.87 194.93 138.71 184.55 98.87 129.64"/><polygon class="cls-13" points="55.25 69.51 39.41 79.9 75.24 129.27 87.32 113.72 55.25 69.51"/><polygon class="cls-14" points="32.66 184.06 48.13 194.93 86.78 145.19 75.24 129.27 32.66 184.06"/><polygon class="cls-15" points="138.04 79.22 122.57 68.36 87.32 113.72 98.87 129.64 138.04 79.22"/><polygon class="cls-16" points="87.32 113.72 75.24 129.27 86.78 145.19 98.87 129.64 87.32 113.72"/><polygon class="cls-17" points="87.32 113.72 75.24 129.27 86.78 145.19 98.87 129.64 87.32 113.72"/><text></text><text class="cls-18" transform="translate(97.19 245.08) scale(0.6 0.58)">L<tspan class="cls-19" x="26.95" y="0">E</tspan><tspan x="55.37" y="0">T´S </tspan><tspan class="cls-20" x="139.22" y="0">C</tspan><tspan x="169.02" y="0">ONQUER</tspan><tspan class="cls-21" x="376.43" y="0"> </tspan><tspan class="cls-22" x="384.97" y="0">Y</tspan><tspan x="414.3" y="0">OUR NEO</tspan><tspan class="cls-23" x="632.36" y="0">L</tspan><tspan class="cls-24" x="659.63" y="0">AND</tspan></text><circle class="cls-25" cx="224.45" cy="129.3" r="5.68"/><rect class="cls-26" width="637.35" height="300.03"/></g></g></svg>