<?xml version="1.0" encoding="iso-8859-1"?>
<!-- Generator: Adobe Illustrator 19.0.0, SVG Export Plug-In . SVG Version: 6.00 Build 0)  -->
<svg version="1.1" id="Capa_1" xmlns="http://www.w3.org/2000/svg" xmlns:xlink="http://www.w3.org/1999/xlink" x="0px" y="0px"
	 viewBox="0 0 512 512" style="enable-background:new 0 0 512 512;" xml:space="preserve">
<path style="fill:#90E7FC;" d="M469.456,111.417l-51.714-51.714c-2.028-2.028-5.316-2.028-7.344,0L392.202,77.9
	c-2.028,2.028-2.028,5.316,0,7.343l7.467,7.467l-48.696,48.696l36.781,36.781l48.696-48.696l7.467,7.467
	c2.028,2.028,5.316,2.028,7.344,0l18.197-18.197C471.484,116.733,471.484,113.445,469.456,111.417z"/>
<path style="fill:#57D5EA;" d="M469.456,111.419l-21.405-21.405l-74.231,74.239l13.934,13.934l48.693-48.693l7.467,7.468
	c2.032,2.022,5.313,2.022,7.345,0l18.197-18.197C471.488,116.732,471.488,113.441,469.456,111.419z"/>
<path style="fill:#B3B3BA;" d="M298.62,0H194.456c-2.868,0-5.193,2.325-5.193,5.193v39.153c0,2.868,2.325,5.193,5.193,5.193h17.634
	v68.895h68.895V49.538h17.634c2.868,0,5.193-2.325,5.193-5.193V5.193C303.813,2.325,301.488,0,298.62,0z"/>
<path style="fill:#A0A0A5;" d="M298.625,0.004H254.35v104.013h26.635V49.539h17.64c2.868,0,5.189-2.321,5.189-5.189V5.192
	C303.814,2.325,301.493,0.004,298.625,0.004z"/>
<circle style="fill:#B3B3BA;" cx="246.54" cy="306.48" r="205.52"/>
<path style="fill:#A0A0A5;" d="M452.05,306.481C452.05,419.984,360.045,512,246.542,512c-7.964,0-15.824-0.454-23.561-1.341
	C325.374,498.951,404.897,412,404.897,306.481S325.374,114.012,222.98,102.304c7.737-0.887,15.597-1.341,23.561-1.341
	C360.045,100.963,452.05,192.978,452.05,306.481z"/>
<circle style="fill:#FFEFD8;" cx="246.54" cy="306.48" r="166.82"/>
<path style="fill:#EDDDC8;" d="M413.366,306.481c0,92.129-74.696,166.825-166.825,166.825c-6.911,0-13.72-0.423-20.404-1.238
	c82.515-10.058,146.42-80.359,146.42-165.587c0-85.238-63.905-155.529-146.42-165.587c6.685-0.815,13.493-1.238,20.404-1.238
	C338.671,139.657,413.366,214.342,413.366,306.481z"/>
<g>
	<path style="fill:#B3B3BA;" d="M246.538,203.618c-4.273,0-7.737-3.464-7.737-7.737v-29.597c0-4.273,3.464-7.737,7.737-7.737
		s7.737,3.464,7.737,7.737v29.597C254.275,200.155,250.811,203.618,246.538,203.618z"/>
	<path style="fill:#B3B3BA;" d="M246.538,454.412c-4.273,0-7.737-3.464-7.737-7.737v-29.597c0-4.273,3.464-7.737,7.737-7.737
		s7.737,3.464,7.737,7.737v29.597C254.275,450.948,250.811,454.412,246.538,454.412z"/>
	<path style="fill:#B3B3BA;" d="M191.245,218.438c-2.674,0-5.274-1.388-6.707-3.87l-14.799-25.631
		c-2.137-3.7-0.869-8.432,2.832-10.568c3.701-2.138,8.432-0.869,10.568,2.832l14.799,25.631c2.137,3.7,0.869,8.432-2.832,10.568
		C193.889,218.103,192.559,218.438,191.245,218.438z"/>
	<path style="fill:#B3B3BA;" d="M316.643,435.63c-2.674,0-5.274-1.388-6.707-3.87l-14.799-25.631
		c-2.137-3.7-0.869-8.432,2.832-10.569s8.432-0.869,10.568,2.832l14.799,25.631c2.137,3.7,0.869,8.432-2.832,10.569
		C319.286,435.296,317.956,435.63,316.643,435.63z"/>
	<path style="fill:#B3B3BA;" d="M150.751,258.919c-1.313,0-2.643-0.334-3.861-1.038l-25.631-14.798
		c-3.701-2.136-4.968-6.868-2.832-10.569c2.136-3.7,6.867-4.968,10.569-2.832l25.631,14.798c3.7,2.136,4.968,6.868,2.832,10.569
		C156.025,257.531,153.424,258.919,150.751,258.919z"/>
	<path style="fill:#B3B3BA;" d="M367.944,384.315c-1.313,0-2.643-0.334-3.861-1.038l-25.631-14.798
		c-3.701-2.136-4.968-6.868-2.832-10.569s6.868-4.969,10.569-2.832l25.631,14.799c3.701,2.136,4.968,6.868,2.832,10.568
		C373.218,382.928,370.617,384.315,367.944,384.315z"/>
	<path style="fill:#B3B3BA;" d="M135.939,314.216h-29.597c-4.273,0-7.737-3.464-7.737-7.737s3.464-7.737,7.737-7.737h29.597
		c4.273,0,7.737,3.464,7.737,7.737C143.676,310.753,140.213,314.216,135.939,314.216z"/>
	<path style="fill:#B3B3BA;" d="M386.734,314.216h-29.597c-4.273,0-7.737-3.464-7.737-7.737s3.464-7.737,7.737-7.737h29.597
		c4.273,0,7.737,3.464,7.737,7.737C394.47,310.753,391.006,314.216,386.734,314.216z"/>
	<path style="fill:#B3B3BA;" d="M125.133,384.315c-2.674,0-5.274-1.388-6.707-3.87c-2.137-3.7-0.869-8.432,2.832-10.568
		l25.631-14.799c3.7-2.137,8.431-0.869,10.569,2.832c2.137,3.7,0.869,8.432-2.832,10.569l-25.631,14.798
		C127.776,383.981,126.446,384.315,125.133,384.315z"/>
	<path style="fill:#B3B3BA;" d="M342.326,258.919c-2.674,0-5.274-1.388-6.707-3.87c-2.137-3.701-0.868-8.432,2.832-10.569
		l25.631-14.798c3.7-2.136,8.432-0.869,10.569,2.832s0.869,8.432-2.832,10.569l-25.631,14.798
		C344.969,258.585,343.639,258.919,342.326,258.919z"/>
	<path style="fill:#B3B3BA;" d="M176.434,435.63c-1.313,0-2.643-0.334-3.861-1.038c-3.701-2.136-4.968-6.868-2.832-10.569
		l14.799-25.631c2.137-3.701,6.867-4.969,10.568-2.832c3.701,2.136,4.968,6.868,2.832,10.569l-14.799,25.631
		C181.708,434.243,179.107,435.63,176.434,435.63z"/>
	<path style="fill:#B3B3BA;" d="M301.83,218.438c-1.313,0-2.643-0.334-3.861-1.038c-3.701-2.136-4.968-6.868-2.832-10.568
		l14.799-25.631c2.137-3.701,6.867-4.97,10.569-2.832c3.701,2.136,4.968,6.868,2.832,10.568l-14.799,25.631
		C307.105,217.05,304.504,218.438,301.83,218.438z"/>
	<path style="fill:#B3B3BA;" d="M246.538,277.714c-8.26,0-15.712,3.504-20.963,9.098l-37.611-23.692
		c-3.616-2.278-8.393-1.192-10.67,2.422c-2.278,3.616-1.193,8.393,2.422,10.67l38.669,24.359c-0.4,1.908-0.613,3.884-0.613,5.91
		c0,15.862,12.904,28.766,28.766,28.766s28.766-12.904,28.766-28.766S262.4,277.714,246.538,277.714z M246.538,319.772
		c-7.329,0-13.292-5.963-13.292-13.292c0-7.329,5.963-13.292,13.292-13.292s13.292,5.963,13.292,13.292
		C259.831,313.809,253.868,319.772,246.538,319.772z"/>
</g>
<g>
</g>
<g>
</g>
<g>
</g>
<g>
</g>
<g>
</g>
<g>
</g>
<g>
</g>
<g>
</g>
<g>
</g>
<g>
</g>
<g>
</g>
<g>
</g>
<g>
</g>
<g>
</g>
<g>
</g>
</svg>
